/* XPM */
static char *_9f07eadeec04930973d4043507960e4N6crAHtjEaazS7WF[] = {
/* columns rows colors chars-per-pixel */
"64 64 96 2 ",
"   c #07151F",
".  c #09151F",
"X  c #071621",
"o  c #091621",
"O  c #0A1925",
"+  c #0C1D2B",
"@  c #111F2A",
"#  c #0D1F30",
"$  c #0D202E",
"%  c #11212E",
"&  c #0D2334",
"*  c #0E2639",
"=  c #0F2A3D",
"-  c #132534",
";  c #162837",
":  c #1A2A37",
">  c #112739",
",  c #122A3D",
"<  c #1A2D3D",
"1  c #0F2940",
"2  c #132D42",
"3  c #192F41",
"4  c #173145",
"5  c #1A3245",
"6  c #1C364A",
"7  c #1F394E",
"8  c #1F3A50",
"9  c #203546",
"0  c #203749",
"q  c #203A4F",
"w  c #223C52",
"e  c #223D54",
"r  c #253F55",
"t  c #243F57",
"y  c #283E52",
"u  c #283E53",
"i  c #264055",
"p  c #254156",
"a  c #254157",
"s  c #284155",
"d  c #264158",
"f  c #274359",
"g  c #25425A",
"h  c #26435A",
"j  c #26435B",
"k  c #27435B",
"l  c #27435C",
"z  c #29455C",
"x  c #29465D",
"c  c #29465E",
"v  c #29475F",
"b  c #2A465F",
"n  c #2D495E",
"m  c #2A4760",
"M  c #2B4860",
"N  c #2A4961",
"B  c #2E4B63",
"V  c #2F4D63",
"C  c #2C4C65",
"Z  c #2E4D66",
"A  c #2E4D67",
"S  c #2F4E68",
"D  c #314D65",
"F  c #304D66",
"G  c #304E67",
"H  c #304F69",
"J  c #324E69",
"K  c #325069",
"L  c #31516A",
"P  c #33516B",
"I  c #32536C",
"U  c #34526C",
"Y  c #34526D",
"T  c #36546E",
"R  c #34566E",
"E  c #38566F",
"W  c #365670",
"Q  c #375672",
"!  c #375773",
"~  c #385772",
"^  c #375873",
"/  c #385873",
"(  c #3A5974",
")  c #395A74",
"_  c #3B5A75",
"`  c #385976",
"'  c #395C76",
"]  c #3C5D77",
"[  c #3A5B78",
"{  c #3B5B78",
"}  c #395D78",
"|  c #3B5C79",
" . c #3B5E79",
".. c #3D5D7A",
"X. c #3D5D7B",
"o. c #3B5D7C",
/* pixels */
"+ & = & o * > & * * & + o * , = 1 * & & * , = 6 5 * 5 w 7 8 ( |   * 4 7 7 q q q q w P R 6 & 2 7 7 q w 7 b | y + * * = + O - = = ",
"+ @ - + + + % O + & + $ % $ $ & - $ + O & - $ & O O > 7 w 7 A ..+ , 7 w 8 q q q q q 7 P a O = 6 7 q q 7 q ' y % % % & O + + - & ",
"....{ 0 R | | m b ......| ..A ! | ..! I o...R P 6 O * 5 8 8 } o.+ 1 7 8 w q q 7 q q 8 A Y O , 6 q q q q b ' w P | | A f ( o.{ Y ",
"P b { 3 3 a P ! ! d f f n / / ^ f j ^ | A M { { 0 & 1 7 7 A | | + & 5 7 7 q q q 7 7 a ( E + > 2 q q q a / E , 3 a d Y ( B d M ( ",
"w e ..< # 5 8 d d 7 8 7 8 w 7 q 7 7 d M w 7 b | 0 , 4 7 w n } |   $ = 7 q 7 q q q w e ( Y   & = q q q a ] A ; + 4 7 w A w 7 8 n ",
"6 P ..5 * , 4 6 7 8 7 7 6 7 q q 6 6 4 7 7 6 7 | 6 2 4 6 6 7 M |   * 6 7 q q q q q q 7 P ! # 2 6 q q 7 w Y | q > = 6 4 7 7 7 6 7 ",
"& e P 3 + > = 2 5 4 4 3 & 2 4 4 1 * = 3 4 , 2 B 0 & , 4 2 4 7 P + = 6 7 7 w q q 7 7 7 A Y & 2 7 q q q q a | a & = = = 2 4 2 * 2 ",
"  o & O . o $ & X $ o . . + * * + X + & * O & - + o & & O X & * $ = 5 q 7 q q q w 8 8 Y R + 2 q q q q q 7 / y o & * O + * +   $ ",
"5 A D A D D 6 o o o o .   . . . . o . . . . . . . . . o < D D D X * 2 7 7 w 7 7 8 8 a ' !   * 6 w 7 w 7 w ! w D A b 4 s D D n 5 ",
"+ n Y { Y R ..d + < 6 3 & O O @ . + O o o . o . . . . . * 7 d !   & 1 7 8 6 4 5 6 3 8 ^ ! o = 2 5 7 6 6 B ! : 6 P R P | R _ { P ",
"+ 2 e R n w Y ( 0 / d 6 6 5 6 6 : > , , 9 6 % O o . . . + 2 5 P + * = , , , * > = * , 6 M + , * , 2 , 2 5 a 0 , 5 a P b w d A { ",
"O , 8 7 8 7 7 ( M ~ d w 7 6 4 6 4 5 w 8 q q q q 3 o . .   + & q o & $ .   $ O O & X X & + X +   O & X + O & O + , 7 7 7 7 8 H R ",
"o * 5 8 q q 7 { M R w q q q q q 7 7 4 7 q q q q q : o . n ! ! Y ^ R I R a D R a w n ! R R B R ~ R ! A 7 r < . O + 3 q q 8 q ~ H ",
"+ 2 5 8 q 7 w ( r ..f q q q q q w : ; 3 4 7 q w q 5 O o 3 b H ..| | ! ^ 7 D | | | | | ! A M P ..| | | ! ..! < O # ; q q q q m o.",
"+ = 2 8 q q M { 0 R w 7 q q q q 5 6 6 4 3 3 6 q w 6 + . * = 7 A P w w n , q w w e n Y 8 7 7 w w m ( ( l w ` r - O q 6 q q 7 w Y ",
"  + 1 7 q w w ..0 _ a q q q q q q q w 6 7 8 q 4 6 q + . & = 7 q 7 7 8 7 6 q q q 7 w 7 8 7 w 7 q q b d w w ( b , + 5 + 5 q 7 w Y ",
". + = 5 e 5 6 o.r ..Y b q q r a M M w q k e t 5 q 6 * . + > 7 q q 7 w D ; 4 7 q q q q q 7 w w 7 q w q q P ' 9 5 & o . . 6 q b ..",
"+ * , 2 2 2 2 m b E a e b ~ ~ R Y R R Y ~ Y ~ E E Y B O + = 7 7 q 7 w D 4 6 6 q 7 q q q 7 7 7 7 q q q q A I ; 6 = , * X 6 w R ' ",
"  . o + & O & & , n n P D D s < < s Y H b a d Y B n n 9 $ = 6 w q q f 6 w 7 5 q q q w a 7 7 8 7 q q q q q ! 5 6 = = = + 6 Y ..B ",
"5 Y D Y R S P 3 Y D r e R ~ Y ~ 5 Y ( R ! Y P ~ E Y R q * , 2 7 q q 7 7 7 w q q q q q A 7 7 7 5 q q q q 7 n b , = = = & 5 e / ' ",
"+ a 7 M B w P + e Y | R H B ( ! # a S e d w 7 A a b ^ z & = 4 6 q q q q 7 w 7 7 q q q 7 6 5 5 6 q q 8 8 7 d d 5 = = = = % q b ..",
"+ = 4 7 7 d | O * 7 d A w w M B + = 5 8 7 7 6 7 q 7 P z * = 5 q q 6 5 2 5 6 7 7 q q 7 5 6 A , 6 4 7 7 6 7 P b 6 = = = = O < b | ",
"O * = 4 2 5 ! X + 4 7 w w 8 b n   * 2 5 4 , = 4 4 4 7 d $ , , 4 4 , , * = = = 4 4 4 2 = 2 w * = = 3 3 = = 7 a 6 4 = , = & o < R ",
"X X & + + + * o * 6 7 7 w 7 D |   # + X + & * & o   & $ O * &   + & .     & * $ X & & + ; - & - & . X & + $ X 5 4 6 > , 5 , o . ",
"A q 5 n A A D o * 7 q q q w / o.5 A d 3 5 D B < r A n 4 n B D r 9 D D L d 4 b A A A B 5 5 b A A A n 6 B S M 5 B D P A f w P B w ",
"! ' I ( P b | & , 4 7 q 7 7 R M + n ..( R Y ( D * D Y ..| P R ..+ b P P | | ..( d d / R D .._ P ' _ + M P ' | / d b ' | ' I R ..",
"M _ P d 7 z | $ = , 6 7 w 7 b / + , d ~ ( w P D & 2 w P b 7 l | + = 6 8 S ~ a d 7 w f ( ! a a w ..n O * 6 n ' a 7 q f P M 7 w d ",
"7 q q q q b | o * = = 4 4 , 7 ~   * 4 w q w ! b o * 6 q q 7 b ..  $ 2 7 7 q q q 7 w 8 7 q q q P { b   & 5 7 q q 7 7 w 7 w q q q ",
"q q w 8 8 ^ P X o & > > $ O - 5 . + 4 w 7 d ..5 . , q q q r ! ( . & , q w 7 q 7 w 7 q q q q 8 a | ^ o * 6 7 w q q q q q 7 q q q ",
"q q 6 5 w D R + r b n M n M 5 a   * 4 7 w a ~ s . 4 6 q 6 P ( a   * 6 q 7 6 7 w 7 8 q q q 7 w 7 | ^ & 2 7 7 7 4 6 q q 7 7 q q q ",
"4 6 = * 4 w ^ $ 6 n a 8 w A P ^ + 1 7 7 q q w D O 4 a 5 6 n ..P   * 4 w 7 q q 7 w 6 6 q 7 w 7 q M b + ; 5 < > * = > , , 2 , 4 6 ",
"* + O O & = 7 o * 3 4 2 , 4 4 P O * w 7 q q b D * w y 6 q q A ..  * 4 q q w r 4 6 5 7 q q 7 7 7 ` P   X O + O . . O o $ + O + & ",
"9 : 5 w s O . . o . o o . . . . o - q q q D ] z . 7 5 4 q w A !   o = 4 , 6 8 D < 6 q 7 7 6 6 6 R ^ ; q a q 5 - - 3 a q 9 < ; 9 ",
"/ b ~ ( ..5 w & o o . o & O o . o > 4 7 7 n ] z o - 6 6 5 6 / A   o = = = , 5 * o & 4 4 4 , = * 4 A : / ( ../ E n _ / / _ _ _ ..",
"R ( n f ..0 ' 7 6 < ; 4 q 6 5 . o * = 4 5 = d D . * , 6 2 4 7 `   . O & + o     . O & & & +   . & + $ 2 8 D P R ..Y a w 7 w d / ",
"a f q s ..5 I a 7 7 7 q q q , + . o & + O + & < . o * * + & * 4 @ % O o . . . . . . . o   . . .   o o * 6 7 q w s q q q 7 q 8 a ",
"q q q A ^ ; b I w 6 4 6 q 7 $ . < z z d z 4 q b z 7 5 f b z < < k e 2 & $ - X $ O O ; , ; . . . . . . O 4 w 7 w q 7 w 8 q q q q ",
"6 7 q ^ A 4 P D 7 q w 7 q q 3 o O n / E ..( ( ^ ^ ' ' ( ` | ' B M R w 6 7 7 6 6 6 6 7 7 q 5 4 6 - . . + 4 7 w 6 7 7 7 8 q q w q ",
"= 2 6 B ^ w ..8 q d P P D q 4 + . O q a B P Y q q R D b w M ' o.k Y 8 q 7 7 q 7 8 7 6 3 6 q q q 4 O . * , 2 4 = 3 2 = 2 5 7 7 5 ",
"+ * & * a a | P R b 9 ' ~ ] ] n o o ; q 7 w q q 7 7 7 q 7 w M ..n ..R b M n b ( ' j b a w f b n P a $ = * & + + & * * = 2 2 * & ",
". . o . . . . . o o . . . . . . . . ; w q 6 w q q q q q q q b ..6 q s b n d 7 0 0 0 0 5 ; 5 6 d m w + + O o O O O o O + & + O O ",
"` w P ..D b q n | 5 ( | a d n D . . : q q w q q q q q q 7 w b ..9 ~ ..] R w b D s { ..] A j D ..( ' ..A 7 : ! P ! ! r R { { ..o.",
"( ( Y f b / ..D ( + 7 P R ! A P + O ; q q 7 q q q 7 q q 7 7 ! ( + 7 D _ ' / ( H * a b D ( ( ( A b b ( ( B & 7 8 a ( ` ( b b l Y ",
"d A 7 w q w b m b + = 7 q q P b 6 * O , 7 w q 7 q q q q q w E a + , 6 w d A ^ H + , 6 q B P 8 q q q 7 ! ..; = q w a A 7 w 7 7 w ",
"4 7 6 7 7 6 7 M B & 2 w w 7 M _ & = & O $ 5 9 q q q q q w w ( A + , 4 8 8 w P A . * 6 q q q q q q q q b ..- & 3 7 7 7 7 2 7 w 7 ",
"* = 2 4 < = 2 7 Y O > 5 6 3 6 R & 2 = * * + o < q q q q 7 7 D |   * 1 7 7 7 P A . $ 7 8 q q q 8 q q q w R - . > 4 4 4 3 2 2 4 4 ",
". o * * + . & * + o X + * + + > - 4 = = * - + O 6 q q q 7 7 b ..  & = 7 7 d ..6 + = 5 7 q q q q q q 7 q A % . X o + * & + * & o ",
". . . . . . . . . . o . . X . . ; q = = * o . 5 q q q 7 w 7 R ..  + = 6 w d | b & = 2 8 q q q q q q q e ^ - . . .   . . . . . o ",
"+ o o o % $ + $ $ . . o + + . . : 5 = = = & < q q w 7 q q b / f O * 6 q q 7 Y A * 2 7 7 q q q q q q d _ S 6 D $ O . . . % + o . ",
"4 , ; % 6 6 6 5 , * + ; 5 2 $ . : 4 = 1 = & , 7 q 0 q 6 0 d / n + 2 7 7 q q Y D & 4 7 7 q q q q q q e ~ P f ] 7 6 ; O 5 6 6 , + ",
"w q w w 8 q q q w 7 7 7 7 w O   - 5 = = = + + 5 < X $ + O < 0 E + 1 6 w q d _ 5 o = 7 7 q q q q q q w d | d ! ( a 6 5 w q q 7 4 ",
"6 q 7 7 q 7 6 5 7 7 7 7 q 7 O . - 6 6 2 * + + + $ * * * * & o - + = 4 w 7 e R 6 o * 3 q q q q q q q 7 b { a d ( b q w 7 q q q q ",
"w < q w q 6 q 7 5 4 6 q 7 q + . + & = = + X O . O b b d 5 < 6 z   + 4 8 7 8 P P o + 2 8 q q 4 q q q 7 R A 5 Y R 7 w w 6 4 4 q q ",
"w 0 , q 6 6 q q q q q q q q $ . 0 d 2 5 3 7 3 + o a ! ' / A ^ |   O 2 7 7 n ' A O , 6 6 6 4 q q q q q R D 5 { w 6 < 6 q q q 6 q ",
"d S 6 4 5 7 q a d w q w q q 5   y P 7 7 2 q q , o = 4 d ( R | | + * 2 7 w M ^ D * 4 q b 5 6 4 6 8 q q a ~ 9 { w 5 a D 7 q q 7 w ",
"| ! ] M ..] ' | ' b M ] M n s % 7 ` n e d d q q $ + , 7 q 7 R / + = = = < , b A + * 2 b < 4 * = 6 6 = w E b _ ] M ^ ../ A b ^ ( ",
"b e P b b B d n b H ..P b R / 6 < / ' R ~ _ P R < . , 8 q q b m   O & * & o + : o + 3 d - & O * , > + * 6 6 a D M b M | | ..` b ",
"; < n n w O w z q 6 q B B a r D b w ; 3 r r r q O + , 7 q q b R ; % O % O O O % . . o . O - 3 - O O O % . O O a B n e 4 0 b C n ",
"e P ' | s : ~ ` E B { _ { ( ( _ _ ' A R _ _ ~ ( 9 + , 6 q q / ..; P R ~ ( Y P { ( ` ! A 5 - y r m w B P ~ ( < d ` ( ` ! ..| | ( ",
"| | b ^ a & 4 a / E A q e ~ ..Y w b D H b 7 7 ' 0 2 , 4 7 b / S o = 6 e P ( R n q 7 ~ ..r . 3 7 R | b 7 w R : - 3 z P o.o.! D j ",
"M n 8 ^ d * 2 7 e r q q 8 e d e q q q 7 7 7 8 ' 9 1 = 5 7 D ( m o & , 7 7 d w 8 q q z | S   3 6 w a q q a _ q o * 7 w d d w w 7 ",
"8 e j ( d o * 7 w q q q e 7 q q q q q q q w B o.0 & 2 6 7 w P ..  O 2 7 8 7 8 7 q q w | ! X & 6 q q q r ! D 5 O * w 7 7 w 7 q q ",
"7 8 P | s . * 6 7 q q q q q q q q q q q q q Y ( 5 # 6 8 8 q B ( o * 4 w q q q q q q w D Y O - , q q q a ' R < = = 5 q q q q q q ",
"8 a | o.a O * 4 q q q q 7 w q q q q q q 7 a ^ b - # 2 8 7 8 ~ a + = 4 q q q q q q w w / d + , 2 q 7 q q d ' s & 1 4 q q q q q q "
};
